<?xml version="1.0" encoding="UTF-8"?>
<!DOCTYPE svg PUBLIC "-//W3C//DTD SVG 1.1//EN" "http://www.w3.org/Graphics/SVG/1.1/DTD/svg11.dtd">
<svg xmlns="http://www.w3.org/2000/svg" version="1.1" width="1284px" height="1109px" style="shape-rendering:geometricPrecision; text-rendering:geometricPrecision; image-rendering:optimizeQuality; fill-rule:evenodd; clip-rule:evenodd" xmlns:xlink="http://www.w3.org/1999/xlink">
<g><path style="opacity:0.99" fill="#6f8ba5" d="M 640.5,-0.5 C 640.833,-0.5 641.167,-0.5 641.5,-0.5C 796.363,253.389 951.363,507.222 1106.5,761C 1106.17,761.167 1105.83,761.333 1105.5,761.5C 950.853,582.352 796.02,403.352 641,224.5C 486.667,403.5 332.333,582.5 178,761.5C 178.335,758.745 179.335,756.078 181,753.5C 334.392,502.281 487.559,250.948 640.5,-0.5 Z"/></g>
<g><path style="opacity:0.988" fill="#3f5070" d="M 640.5,346.5 C 768.328,470.161 896.328,593.661 1024.5,717C 1026.95,718.74 1028.45,720.907 1029,723.5C 899.81,653.905 770.477,584.572 641,515.5C 512.016,584.826 383.016,654.159 254,723.5C 255.237,720.224 257.403,717.391 260.5,715C 387.366,592.3 514.033,469.466 640.5,346.5 Z"/></g>
<g><path style="opacity:0.988" fill="#020608" d="M 336.5,892.5 C 345.857,892.168 355.19,892.502 364.5,893.5C 398.038,964.743 431.705,1035.91 465.5,1107C 450.167,1107.67 434.833,1107.67 419.5,1107C 411.167,1089.33 402.833,1071.67 394.5,1054C 358.168,1053.5 321.835,1053.33 285.5,1053.5C 277.859,1071.62 269.526,1089.45 260.5,1107C 250.167,1107.67 239.833,1107.67 229.5,1107C 265.577,1035.68 301.244,964.179 336.5,892.5 Z M 340.5,938.5 C 343.027,940.51 344.861,943.177 346,946.5C 359.31,976.102 372.81,1005.6 386.5,1035C 355.833,1035.67 325.167,1035.67 294.5,1035C 310.246,1003.01 325.579,970.842 340.5,938.5 Z"/></g>
<g><path style="opacity:0.989" fill="#020608" d="M 920.5,892.5 C 929.857,892.168 939.19,892.502 948.5,893.5C 982.038,964.743 1015.7,1035.91 1049.5,1107C 1034.17,1107.67 1018.83,1107.67 1003.5,1107C 995.167,1089.33 986.833,1071.67 978.5,1054C 942.5,1053.33 906.5,1053.33 870.5,1054C 861.474,1071.55 853.141,1089.38 845.5,1107.5C 834.828,1107.67 824.161,1107.5 813.5,1107C 849.577,1035.68 885.244,964.179 920.5,892.5 Z M 925.5,937.5 C 940.323,969.985 955.323,1002.48 970.5,1035C 939.833,1035.67 909.167,1035.67 878.5,1035C 894.309,1002.55 909.975,970.05 925.5,937.5 Z"/></g>
<g><path style="opacity:0.987" fill="#020608" d="M -0.5,895.5 C 34.1683,895.333 68.8349,895.5 103.5,896C 132.031,897.062 157.365,906.395 179.5,924C 199.643,944.57 209.309,969.403 208.5,998.5C 206.461,1064.04 172.794,1100.21 107.5,1107C 71.5015,1107.5 35.5015,1107.67 -0.5,1107.5C -0.5,1036.83 -0.5,966.167 -0.5,895.5 Z M 43.5,913.5 C 133.497,899.004 172.664,936.671 161,1026.5C 158.162,1046.01 149.662,1062.51 135.5,1076C 125.731,1083.38 114.731,1087.71 102.5,1089C 82.8362,1089.5 63.1695,1089.67 43.5,1089.5C 43.5,1030.83 43.5,972.167 43.5,913.5 Z"/></g>
<g><path style="opacity:0.978" fill="#020608" d="M 607.5,895.5 C 679.5,895.5 751.5,895.5 823.5,895.5C 823.5,901.5 823.5,907.5 823.5,913.5C 794.833,913.5 766.167,913.5 737.5,913.5C 737.5,978.167 737.5,1042.83 737.5,1107.5C 722.833,1107.5 708.167,1107.5 693.5,1107.5C 693.5,1042.83 693.5,978.167 693.5,913.5C 664.833,913.5 636.167,913.5 607.5,913.5C 607.5,907.5 607.5,901.5 607.5,895.5 Z"/></g>
<g><path style="opacity:0.986" fill="#020607" d="M 514.5,895.5 C 529.5,895.5 544.5,895.5 559.5,895.5C 559.5,966.167 559.5,1036.83 559.5,1107.5C 544.5,1107.5 529.5,1107.5 514.5,1107.5C 514.5,1036.83 514.5,966.167 514.5,895.5 Z"/></g>
<g><path style="opacity:0.998" fill="#010608" d="M 1283.5,895.5 C 1283.5,966.167 1283.5,1036.83 1283.5,1107.5C 1273.81,1107.83 1264.14,1107.5 1254.5,1106.5C 1212.86,1049.69 1171.03,993.026 1129,936.5C 1128.5,993.499 1128.33,1050.5 1128.5,1107.5C 1114.83,1107.5 1101.17,1107.5 1087.5,1107.5C 1087.5,1036.83 1087.5,966.167 1087.5,895.5C 1102.5,895.333 1117.5,895.5 1132.5,896C 1169.33,945.5 1206.17,995 1243,1044.5C 1243.5,994.834 1243.67,945.168 1243.5,895.5C 1256.83,895.5 1270.17,895.5 1283.5,895.5 Z"/></g>
</svg>
